PathFileType	4	(X/Y/Z)	C:/Users/empri/Downloads/Take 2024-05-09 02.19.22 PM.trc
DataRate	CameraRate	NumFrames	NumMarkers	Units	OrigDataRate	OrigDataStartFrame	OrigNumFrames
240	240	39	9	mm	240	207	830
Frame#	Time	C7	CLAV	RELB	RFIN	RFRM	RSHO	RUPA	RWRA	RWRB
X1	Y1	Z1	X2	Y2	Z2	X3	Y3	Z3	X4	Y4	Z4	X5	Y5	Z5	X6	Y6	Z6	X7	Y7	Z7	X8	Y8	Z8	X9	Y9	Z9
207	0.862	-113.351	1542.21	-46.3945	45.0162	1365.03	-142.625	96.4871	1146.79	144.765	175.264	843.404	41.6779	101.388	1022.06	161.359	36.3641	1482.51	67.55	66.506	1323.87	138.165	128.063	919.553	49.1498	88.6622	888.347	131.825
208	0.867	-113.366	1542.19	-46.3725	45.0151	1365.03	-142.591	96.6668	1146.76	144.673	175.699	843.507	41.3935	101.602	1022.01	161.145	36.3453	1482.49	67.5882	66.5324	1323.83	138.147	128.412	919.636	48.8576	88.8706	888.283	131.442
209	0.871	-113.386	1542.19	-46.3517	45.0165	1365.04	-142.565	96.7823	1146.73	144.575	176.06	843.602	41.1256	101.741	1021.95	160.957	36.3307	1482.48	67.6205	66.5495	1323.82	138.14	128.703	919.714	48.5866	89.0661	888.213	131.106
210	0.875	-113.405	1542.18	-46.343	45.0108	1365.05	-142.546	96.8968	1146.7	144.475	176.417	843.721	40.8329	101.879	1021.88	160.78	36.3117	1482.47	67.652	66.5658	1323.78	138.114	128.994	919.789	48.3275	89.3746	887.998	130.564
211	0.879	-113.415	1542.16	-46.3172	45.0116	1365.06	-142.505	97.0179	1146.66	144.355	176.806	843.836	40.5639	102.056	1021.84	160.595	36.2937	1482.46	67.6882	66.5916	1323.78	138.129	129.278	919.851	48.0686	89.543	888.077	130.386
212	0.883	-113.48	1542.17	-46.3001	44.993	1365.06	-142.468	97.1376	1146.62	144.241	177.199	843.958	40.2747	102.261	1021.78	160.395	36.2686	1482.45	67.7277	66.6257	1323.73	138.107	129.575	919.906	47.7914	89.7672	888.092	130.025
213	0.888	-113.506	1542.16	-46.269	44.9567	1365.04	-142.435	97.2923	1146.6	144.081	177.67	844.144	39.8439	102.5	1021.75	160.128	36.231	1482.44	67.7873	66.6496	1323.71	138.097	129.935	919.99	47.4382	90.0827	888.046	129.565
214	0.892	-113.528	1542.15	-46.242	44.9443	1365.04	-142.406	97.4277	1146.58	143.942	178.058	844.223	39.5269	102.698	1021.7	159.898	36.1918	1482.43	67.8357	66.6674	1323.68	138.08	130.258	920.046	47.1265	90.3268	887.989	129.189
215	0.896	-113.564	1542.13	-46.226	44.9271	1365.03	-142.368	97.5798	1146.54	143.788	178.481	844.303	39.2087	102.907	1021.63	159.653	36.1634	1482.41	67.8815	66.6934	1323.63	138.051	130.619	920.126	46.7743	90.5997	887.893	128.744
216	0.9	-113.578	1542.12	-46.2019	44.9098	1365.03	-142.333	97.7218	1146.5	143.643	178.941	844.431	38.8529	103.132	1021.53	159.389	36.1414	1482.41	67.9297	66.7122	1323.56	137.998	131.027	920.207	46.4147	90.8836	887.76	128.208
217	0.904	-113.602	1542.11	-46.172	44.8887	1365.04	-142.293	97.8582	1146.48	143.484	179.373	844.542	38.5163	103.379	1021.48	159.095	36.099	1482.41	68.0089	66.7412	1323.53	137.968	131.388	920.269	46.0785	91.1708	887.704	127.738
218	0.908	-113.615	1542.1	-46.1473	44.8697	1365.05	-142.243	98.0025	1146.45	143.298	179.796	844.621	38.1483	103.63	1021.47	158.785	36.0672	1482.4	68.0602	66.7638	1323.49	137.937	131.79	920.344	45.7208	91.5195	887.663	127.26
219	0.913	-113.623	1542.09	-46.0985	44.855	1365.05	-142.189	98.2135	1146.41	143.041	180.387	844.764	37.6255	103.943	1021.38	158.408	36.0212	1482.37	68.1227	66.7954	1323.43	137.878	132.284	920.447	45.2315	91.8836	887.619	126.682
220	0.917	-113.647	1542.08	-46.0658	44.8507	1365.05	-142.155	98.3615	1146.32	142.829	180.918	844.865	37.2121	104.181	1021.29	158.087	35.9873	1482.34	68.1649	66.8188	1323.37	137.833	132.717	920.511	44.8409	92.1643	887.568	126.204
221	0.921	-113.674	1542.07	-46.0397	44.8499	1365.05	-142.118	98.5271	1146.27	142.632	181.412	844.956	36.7888	104.384	1021.2	157.766	35.9604	1482.31	68.208	66.8284	1323.31	137.776	133.151	920.592	44.4289	92.4588	887.489	125.668
222	0.925	-113.697	1542.06	-46.0051	44.8484	1365.06	-142.085	98.712	1146.21	142.436	181.927	845.062	36.3374	104.623	1021.11	157.448	35.9291	1482.29	68.2602	66.8492	1323.24	137.721	133.589	920.654	43.958	92.785	887.388	125.112
223	0.929	-113.714	1542.06	-45.9703	44.8362	1365.07	-142.043	98.9756	1146.21	142.177	182.496	845.208	35.8522	104.882	1021.03	157.095	35.9022	1482.25	68.3139	66.879	1323.16	137.659	134.076	920.69	43.4894	93.1172	887.334	124.556
224	0.933	-113.734	1542.04	-45.9418	44.8224	1365.07	-141.996	99.157	1146.16	141.968	183.007	845.357	35.4253	105.152	1020.94	156.748	35.8439	1482.2	68.3811	66.9112	1323.09	137.607	134.562	920.786	43.033	93.4287	887.324	124.004
225	0.938	-113.757	1542.04	-45.891	44.8019	1365.07	-141.955	99.3355	1145.99	141.751	183.708	845.49	34.7887	105.477	1020.82	156.288	35.8113	1482.15	68.445	66.9503	1323.01	137.539	135.168	920.902	42.4766	93.856	887.231	123.212
226	0.942	-113.781	1542.03	-45.8618	44.8003	1365.07	-141.931	99.5366	1145.93	141.529	184.309	845.599	34.286	105.778	1020.74	155.893	35.7853	1482.12	68.4948	66.9797	1322.94	137.493	135.691	921.036	41.9678	94.2027	887.155	122.591
227	0.946	-113.804	1542.02	-45.8294	44.7913	1365.07	-141.91	99.7618	1145.88	141.311	184.9	845.73	33.7711	106.094	1020.65	155.487	35.7651	1482.08	68.543	67.0041	1322.86	137.434	136.235	921.114	41.4548	94.5559	887.11	121.959
228	0.95	-113.815	1541.99	-45.7993	44.7787	1365.06	-141.881	99.9577	1145.83	141.1	185.516	845.843	33.2052	106.434	1020.55	155.086	35.731	1482.03	68.6341	67.0456	1322.79	137.38	136.789	921.223	40.9183	94.9581	887.053	121.236
229	0.954	-113.829	1541.99	-45.7664	44.7586	1365.06	-141.854	100.191	1145.75	140.866	186.102	846.03	32.659	106.744	1020.44	154.687	35.7051	1481.99	68.6793	67.0824	1322.73	137.324	137.309	921.342	40.4057	95.311	887.001	120.574
230	0.958	-113.84	1541.98	-45.7339	44.7334	1365.05	-141.824	100.387	1145.69	140.648	186.679	846.263	32.0601	107.036	1020.36	154.304	35.6785	1481.94	68.7256	67.1242	1322.66	137.265	137.84	921.482	39.8844	95.6732	886.923	119.879
231	0.963	-113.862	1541.96	-45.6856	44.7145	1365.05	-141.791	100.63	1145.58	140.362	187.482	846.487	31.3651	107.407	1020.22	153.783	35.6521	1481.88	68.7763	67.1847	1322.56	137.188	138.533	921.679	39.24	96.1867	886.77	118.949
232	0.967	-113.873	1541.93	-45.6574	44.6995	1365.05	-141.776	100.836	1145.52	140.112	188.124	846.714	30.7669	107.715	1020.15	153.348	35.6348	1481.83	68.8132	67.2339	1322.49	137.109	139.132	921.866	38.6474	96.5243	886.743	118.283
233	0.971	-113.893	1541.93	-45.6267	44.6944	1365.05	-141.755	101.034	1145.42	139.852	188.77	846.947	30.1315	108.037	1020.08	152.925	35.615	1481.79	68.8467	67.2736	1322.41	137.025	139.668	922.035	38.0962	96.8596	886.777	117.527
234	0.975	-113.913	1541.92	-45.6039	44.6852	1365.06	-141.742	101.247	1145.38	139.606	189.414	847.195	29.4574	108.419	1020.02	152.457	35.5977	1481.75	68.8738	67.3219	1322.35	136.944	140.236	922.242	37.5158	97.3695	886.548	116.67
235	0.979	-113.928	1541.91	-45.5728	44.6765	1365.07	-141.72	101.467	1145.35	139.339	190.048	847.436	28.8163	108.765	1019.94	152.011	35.5547	1481.7	68.9187	67.374	1322.29	136.868	140.776	922.461	36.9219	97.72	886.533	115.992
236	0.983	-113.938	1541.9	-45.5381	44.6633	1365.05	-141.7	101.702	1145.31	139.067	190.74	847.759	28.1074	109.066	1019.85	151.591	35.5387	1481.67	68.9573	67.4199	1322.21	136.784	141.304	922.66	36.3396	98.1423	886.443	115.101
237	0.987	-113.948	1541.9	-45.4777	44.6462	1365.05	-141.679	101.894	1145.26	138.812	191.45	848.097	27.4275	109.32	1019.77	151.146	35.5427	1481.63	68.9958	67.4683	1322.15	136.706	141.882	922.868	35.7187	98.5879	886.379	114.387
238	0.992	-113.969	1541.9	-45.4087	44.6353	1365.05	-141.653	102.144	1145.2	138.517	192.23	848.52	26.5514	109.714	1019.65	150.512	35.5291	1481.58	69.0352	67.5399	1322.05	136.575	142.561	923.144	34.9721	99.1239	886.33	113.45
239	0.996	-113.982	1541.89	-45.3779	44.6231	1365.05	-141.643	102.329	1145.16	138.264	192.963	848.928	25.7659	110.039	1019.57	150.023	35.5076	1481.52	69.0733	67.5841	1321.98	136.484	143.116	923.403	34.3259	99.5558	886.27	112.512
240	1	-113.995	1541.87	-45.3407	44.6127	1365.04	-141.631	102.532	1145.12	138.012	193.703	849.27	25.0042	110.365	1019.53	149.528	35.5004	1481.49	69.0989	67.6651	1321.89	136.387	143.789	923.811	33.626	99.9868	886.299	111.708
241	1.004	-114.009	1541.87	-45.3112	44.5987	1365.03	-141.613	102.718	1145.08	137.75	194.462	849.663	24.1771	110.693	1019.45	149.025	35.4891	1481.45	69.128	67.7121	1321.82	136.294	144.259	924	33.0043	100.543	886.192	110.789
242	1.008	-114.02	1541.86	-45.2612	44.5821	1365.03	-141.595	102.888	1145.04	137.514	195.19	850.052	23.3978	111.015	1019.41	148.546	35.481	1481.42	69.16	67.7608	1321.77	136.23	144.852	924.305	32.3219	100.983	886.219	110
243	1.012	-114.027	1541.85	-45.2261	44.5647	1365.03	-141.572	103.04	1145.02	137.298	195.955	850.556	22.5599	111.345	1019.38	148.042	35.4709	1481.39	69.187	67.8082	1321.72	136.167	145.52	924.686	31.614	101.448	886.208	109.025
244	1.017	-114.043	1541.84	-45.187	44.5422	1365.04	-141.559	103.231	1144.95	136.983	196.967	851.09	21.563	111.791	1019.31	147.396	35.4589	1481.35	69.2231	67.8562	1321.66	136.09	146.326	925.164	30.7007	102.015	886.257	107.885
245	1.021	-114.061	1541.85	-45.1547	44.5357	1365.06	-141.543	103.372	1144.94	136.76	197.857	851.651	20.7396	112.128	1019.28	146.886	35.4574	1481.33	69.2497	67.8932	1321.62	136.032	146.969	925.572	29.9589	102.493	886.291	106.906
